<svg xmlns="http://www.w3.org/2000/svg" width="567.336" height="427.71" viewBox="0 0 567.336 427.71">
  <defs>
    <style>
      .cls-1 {
        fill: #f2f2f2;
      }

      .cls-2 {
        fill: #a0616a;
      }

      .cls-3 {
        fill: #ccc;
      }

      .cls-4 {
        fill: #3f3d56;
      }

      .cls-5 {
        fill: #fff;
      }

      .cls-6 {
        fill: #e6e6e6;
      }

      .cls-7 {
        fill: #6c63ff;
      }

      .cls-8 {
        fill: #231f20;
      }

      .cls-12, .cls-8 {
        opacity: 0.2;
      }

      .cls-9 {
        fill: #2f2e41;
      }

      .cls-10 {
        fill: #9e616a;
      }

      .cls-11 {
        fill: #fd6584;
      }

      .cls-13 {
        fill: #cacaca;
      }
    </style>
  </defs>
  <g id="undraw_world_re_768g" transform="translate(-0.03 0)">
    <path id="Path_7" data-name="Path 7" class="cls-1" d="M917.034,494.753a2.613,2.613,0,0,1-2.1-4.436l.146-.719L915,489.43a7.017,7.017,0,0,0-12.928.65c-1.878,5.192-4.333,10.419-4.745,15.835a20.763,20.763,0,0,0,.7,7.115,83.231,83.231,0,0,1-9.17-34.178,80.346,80.346,0,0,1,.081-8.975q.242-3.674.806-7.312a84.193,84.193,0,0,1,15.019-36.421,22.406,22.406,0,0,0,8.859-10.091,17.089,17.089,0,0,0,1.335-4.738c-.45.081-.909.139-1.361.19l-.43.042-.053,0a2.589,2.589,0,0,1-2.32-4.114l.554-.749c.28-.385.568-.763.847-1.149a1.287,1.287,0,0,0,.091-.116c.322-.439.644-.871.966-1.311a7.487,7.487,0,0,0-2.562-2.256c-3.518-1.846-8.178-.237-10.508,2.976s-2.6,7.581-1.561,11.412a30,30,0,0,0,4.576,9.049c-.175.246-.357.486-.532.732a84.74,84.74,0,0,0-8.183,14.408,35.226,35.226,0,0,0-2.862-16.246c-2.237-4.757-6.2-8.667-9.71-12.706-4.221-4.852-12.294-2.273-12.7,4.145q-.006.093-.011.186.759.383,1.489.818a3.544,3.544,0,0,1-1.128,6.51l-.072.015a35.28,35.28,0,0,0,1.174,5.224,36.312,36.312,0,0,0,19.118,21.892c.3.135.586.27.882.4a86.491,86.491,0,0,0-3.632,22.1A82.035,82.035,0,0,0,887.7,486l-.03-.155a21.676,21.676,0,0,0-7.974-12.159c-5.906-4.408-14.023-5.755-20.335-9.225a4.068,4.068,0,0,0-6.04,4.243q.016.081.033.163a23.8,23.8,0,0,1,2.727,1.161q.759.383,1.489.818a3.544,3.544,0,0,1-1.128,6.51l-.072.014-.147.029a35.3,35.3,0,0,0,6.958,9.854,36.344,36.344,0,0,0,26.867,10.327h.007a86.468,86.468,0,0,0,6.591,16.668l20.727-.965c.064-.234.119-.475.176-.708a23.577,23.577,0,0,1-5.751-.075c1.45-1.959,2.9-3.932,4.349-5.891a1.3,1.3,0,0,0,.091-.116c.735-1,1.478-2,2.213-3h0a34.535,34.535,0,0,0-1.42-8.74Z" transform="translate(-803.19 -222.603)"/>
    <path id="Path_8" data-name="Path 8" class="cls-1" d="M189.386,247.208a2.613,2.613,0,0,0,2.372-4.3l-.1-.727.089-.162a7.017,7.017,0,0,1,12.863,1.448c1.553,5.3,3.681,10.667,3.757,16.1a20.759,20.759,0,0,1-1.134,7.058A83.229,83.229,0,0,0,218.5,233.078a80.333,80.333,0,0,0,.474-8.963q-.015-3.682-.353-7.347a84.194,84.194,0,0,0-12.74-37.28,22.406,22.406,0,0,1-8.219-10.619,17.091,17.091,0,0,1-1.04-4.811c.445.108.9.2,1.347.274l.426.069.053.008a2.589,2.589,0,0,0,2.57-3.963l-.506-.782c-.256-.4-.519-.8-.775-1.2a1.289,1.289,0,0,1-.084-.121c-.294-.458-.589-.909-.884-1.368a7.486,7.486,0,0,1,2.7-2.093c3.626-1.626,8.177.269,10.3,3.619s2.129,7.728.853,11.486a30,30,0,0,1-5.126,8.749c.159.257.326.507.486.764a84.738,84.738,0,0,1,7.277,14.886,35.232,35.232,0,0,1,3.863-16.044c2.524-4.6,6.717-8.263,10.474-12.077,4.513-4.581,12.411-1.509,12.419,4.922q0,.093,0,.187-.781.335-1.537.725a3.544,3.544,0,0,0,.723,6.567l.071.019a35.269,35.269,0,0,1-1.494,5.142A36.311,36.311,0,0,1,219.34,204.5c-.3.116-.6.234-.905.343a86.491,86.491,0,0,1,2.259,22.285,82.034,82.034,0,0,1-1.491,13.161l.039-.153a21.677,21.677,0,0,1,8.71-11.643c6.167-4.035,14.352-4.877,20.866-7.951a4.068,4.068,0,0,1,5.766,4.608l-.043.161a23.813,23.813,0,0,0-2.793.99q-.781.335-1.537.725a3.544,3.544,0,0,0,.723,6.567l.071.019.145.038a35.3,35.3,0,0,1-7.554,9.4,36.344,36.344,0,0,1-27.453,8.647h-.007a86.464,86.464,0,0,1-7.608,16.229L187.9,265.681c-.049-.237-.09-.481-.131-.718a23.577,23.577,0,0,0,5.745.281c-1.326-2.044-2.651-4.1-3.977-6.148a1.283,1.283,0,0,1-.084-.121c-.672-1.046-1.352-2.085-2.023-3.13h0a34.532,34.532,0,0,1,1.957-8.636Z" transform="translate(312.665 -154.291)"/>
    <path id="Path_9" data-name="Path 9" class="cls-2" d="M674.7,272.1a7.244,7.244,0,0,0-4.617,10.1l-11.069,12.307,5.838,8.551,15.388-17.6A7.283,7.283,0,0,0,674.7,272.1Z" transform="translate(-440.09 -186.824)"/>
    <path id="Path_10" data-name="Path 10" class="cls-3" d="M669.554,308.031h0A14.483,14.483,0,0,1,689.52,303.3l36.4,22.547,39.27-33.381,9.771,9.1-43.382,56.286L675.2,328.455C676.515,329.141,667.964,310.619,669.554,308.031Z" transform="translate(-535.247 -192.539)"/>
    <path id="Path_11" data-name="Path 11" class="cls-4" d="M336.775,365.253a136.856,136.856,0,1,0,16.178-64.6,135.072,135.072,0,0,0-7.568,16.71c-.3.8-.586,1.6-.867,2.4v.008q-1.883,5.316-3.316,10.831a136.916,136.916,0,0,0-4.427,34.645Z" transform="translate(-141.388 -174.79)"/>
    <path id="Path_12" data-name="Path 12" class="cls-5" d="M431,287.815a45.935,45.935,0,0,1,40.326-1.65c5.638,2.454,11.575,6.856,13.456,14.8-7.607-4.49-17.455,2.6-19.412,13.983l.457.126c1.034,7.882-1.274,16.463-5.743,21.35-.587-5.077-3.925-8.531-7.208-10.69s-6.915-3.726-9.421-7.436c-2.971-4.4-3.725-10.826-4.905-16.689S435.134,289.448,431,287.815Z" transform="translate(-84.025 -189.72)"/>
    <path id="Path_13" data-name="Path 13" class="cls-5" d="M349.615,353.639c2.107,3.164,4.921,5.149,7.446,7.621a17.142,17.142,0,0,1,5.415,10.123c.319,2.753-.175,5.552-.106,8.336s1,5.917,2.89,6.609c2.989,1.08,5.271-4.472,8.344-4.86,2.442-.3,4.64,3.537,3.932,6.868s-4.031,4.807-5.94,2.632c-1.727,2.9-.51,8.154,2.084,9.043.274,1.825.548,3.643.814,5.469,6.556-4.586,13.181-9.249,18.756-15.965a48.459,48.459,0,0,0,11.044-26.1c.723-7.72-.35-16.55,3.194-22.491,2.837-4.754,7.7-5.8,12.086-5.507.8.053,1.6.144,2.4.243a135.4,135.4,0,0,0-9.8-22.437,9.6,9.6,0,0,1-2.457-1.529c-4.077-3.461-5.887-10.466-9.2-15.311q-.319-.468-.662-.913c-3.385-4.419-7.918-6.693-12.3-8.808-9.7-4.708-19.676-9.477-29.914-8.823l2.913.281q5.1,14.284,10.207,28.568.776,2.19,1.567,4.389c1.932,5.415,3.925,11.181,3.628,17.242-.175,3.59-1.422,7.423-3.8,8.656-2.213,1.141-4.632-.259-6.769-1.643-.905-.578-1.8-1.156-2.708-1.742-3.248-2.092-6.845-4.236-10.276-2.837-3.141,1.278-5.461,5.545-5.9,10.146a20.285,20.285,0,0,0,3.1,12.74Z" transform="translate(36.891 -188.473)"/>
    <path id="Path_14" data-name="Path 14" class="cls-5" d="M427.707,465.707l28.456-17.521-.161-.415c5.9,2.246,8.346,12.729,7.371,21.3s-4.279,16.237-5.949,24.59a65.27,65.27,0,0,0,2.461,34.249,280.485,280.485,0,0,1-32.949-45.4,24.289,24.289,0,0,1-2.98-6.609c-.6-2.489-.51-5.481.7-7.477A8.325,8.325,0,0,1,427.707,465.707Z" transform="translate(-57.982 -235.529)"/>
    <path id="Path_15" data-name="Path 15" class="cls-5" d="M438.248,322.81a10.488,10.488,0,0,1,.481,7.627c-.933,2.393-2.907,3.475-4.724,4.375l-5.241,2.6c-1.744.864-3.623,1.737-5.4,1.026-2.144-.858-3.63-4.219-3.246-7.339.409-3.32,2.5-5.6,4.438-7.549l8.126-8.165,1.527,1.87a20.388,20.388,0,0,1,4.04,5.557Z" transform="translate(-31.544 -198.882)"/>
    <path id="Path_16" data-name="Path 16" class="cls-5" d="M530.331,352.2l-7.074,1.666c.411,7.963,4.358,15.334,9.652,18,2.206,1.111,4.662,1.521,6.488,3.6,1.65,1.886,2.487,4.822,3.255,7.629l4.039,14.695c1.445,5.279,3.3,11.143,7.058,13.044,3.225,1.635,6.914-.365,9.393-3.719s3.993-7.865,5.461-12.261c-.091,4.792,2.137,9.492,5.294,11.158s7.013.16,9.127-3.56c1.521-2.67,2.152-6.191,3.643-8.9s4.617-4.259,6.244-1.719c1.072,1.689.936,4.275,1.468,6.419.829,3.331,3.339,5.423,5.826,5.606s4.9-1.247,6.975-3.187c4.282-4.016,7.439-10.39,8.663-17.471a20.843,20.843,0,0,0-.243-9.553c-.935-2.959-3.194-5.24-5.438-4.678-1.476-3.118,1.437-7.256,4.062-6.891s4.693,3.187,6.853,5.355,5.164,3.742,7.332,1.59a2.974,2.974,0,0,0,3.02,3.156c1.4-.16,2.647-1.285,3.932-2.084,4.967-3.1,11.272-1.042,14.8,4.814-2.206-9.386-5.438-20.156-12.215-22.361-2.769-.905-5.788-.16-8.4-1.727-4.632-2.776-5.568-13.265-1.567-17.592-.51,4.092-.411,8.868,1.749,11.667s6.693.973,6.419-3.164c.624,2.852,3.727,3.286,5.157,1.1s1.316-5.773.3-8.389a19.76,19.76,0,0,0-4.434-6.3c-3.613-3.871-7.279-7.788-11.462-10.222s-9.028-3.255-13.227-.837c-2.213,1.278-4.16,3.407-6.419,4.533s-5.126.989-6.625-1.658c-1.681-2.951-.89-7.332-1.514-11.021-1.118-6.518-7.636-9.568-11.249-5.263,2.7-.692,5.491,2.5,5.826,6.374s-1.613,7.781-4.229,8.952c-4.4,1.947-8.7-2.951-12.025-7.484q-5.2-7.119-10.42-14.231a17.2,17.2,0,0,0-1.863-2.267,6,6,0,0,0-8.192-.167c-3.514,2.867-5.164,8.747-8.047,12.793-4.183,5.879-10.443,7.309-16.269,8.45q-6.514,1.266-13.037,2.548a135.076,135.076,0,0,0-7.568,16.71C518.207,338.476,525,344.324,530.331,352.2Z" transform="translate(-301.644 -192.773)"/>
    <path id="Path_17" data-name="Path 17" class="cls-5" d="M652.58,498.332a136.353,136.353,0,0,0,11.333,18.961c2.738-1.171,5.682.92,8.245,2.883,2.677,2.054,5.895,4.054,8.64,2.183,2.807-1.917,3.712-7.279,2.822-11.531s-3.111-7.621-5.263-10.831c-2.282-3.407-4.723-6.944-7.895-8.268s-7.264.548-8.192,5.066l-2.251-.076c1.263-1.734.6-5.324-1.1-5.955-1.955-.738-3.651,1.947-4.807,4.32C653.6,496.156,653.073,497.237,652.58,498.332Z" transform="translate(-435.47 -247.395)"/>
    <path id="Path_18" data-name="Path 18" class="cls-5" d="M498.483,442.661c4.839.3,8.672-5.653,11.219-11.513s4.871-12.562,9.238-15.546c2.495-1.7,5.339-1.938,8.045-2.764a9.962,9.962,0,0,0,6.832-6.015l3.07-1.24c4.054,2.28,8.161,4.6,11.655,8.31a26.048,26.048,0,0,1,6.945,15.182c.586,6.144-1.579,13-5.625,15.3-3.2,1.824-6.919.674-10.157,2.344-4.046,2.086-6.448,8.146-7.357,14.129s-.679,12.2-1.329,18.252-2.443,12.347-6.154,15.448c-4.643,3.88-11.456.656-13.539-6.408-1.022-3.465-.987-7.375-1.751-10.971-1.346-6.334-4.978-11.033-7.858-16.229S496.567,448.691,498.483,442.661Z" transform="translate(-200.402 -223.85)"/>
    <path id="Path_19" data-name="Path 19" class="cls-5" d="M516.912,366.763a12.924,12.924,0,0,0-1.26,1.338,4.395,4.395,0,0,0,.077,4.539,4.222,4.222,0,0,1-3.024-1.537,19.44,19.44,0,0,1-2.318-3.266,3.559,3.559,0,0,1-.684-2.849c.229-.652.769-.931,1.148-1.421a9.66,9.66,0,0,0,1.061-3.08c.671-2.305,2.28-4,4.026-4.243l-.243.046a2.3,2.3,0,0,1,1.078,2.45c-.147.949-.757,1.737-.7,2.705.087,1.392,1.478,2.045,1.564,3.437A2.657,2.657,0,0,1,516.912,366.763Z" transform="translate(-171.622 -210.193)"/>
    <path id="Path_20" data-name="Path 20" class="cls-6" d="M499.577,337.912l-.022,0a3.872,3.872,0,0,1-.413-.44Z" transform="translate(-146.517 -204.996)"/>
    <path id="Path_21" data-name="Path 21" class="cls-5" d="M492,344.6a4.22,4.22,0,0,1-1.314-4.183c.352-1.583,1.6-2.647,2.743-2.355a2.8,2.8,0,0,0,2.6.765c.71-.183,1.489-.653,2.1-.118a3.184,3.184,0,0,1,.717,1.4l.683,2.1a1.324,1.324,0,0,1,.081.795.673.673,0,0,1-.516.411l-4.1,1.209A3.533,3.533,0,0,1,492,344.6Z" transform="translate(-140.537 -205.145)"/>
    <path id="Path_22" data-name="Path 22" class="cls-5" d="M634.329,469.263l1.9-3.1a10.365,10.365,0,0,1,2.5-3.136,2.213,2.213,0,0,1,3.15.316l-.077.591c-1.44,1.807-2.963,3.813-3.328,6.494-.144,1.057-.094,2.151-.22,3.212a3.747,3.747,0,0,1-1.17,2.62c-.995.665-2.163-.315-2.871-1.511a5.2,5.2,0,0,1-.806-3.311,5.808,5.808,0,0,1,.93-2.173Z" transform="translate(-380.88 -239.608)"/>
    <path id="Path_23" data-name="Path 23" class="cls-6" d="M674.261,413.621l-.548-3.594a10.368,10.368,0,0,1-.109-4.007,2.213,2.213,0,0,1,2.613-1.787l.322.5c.062,2.309.189,4.826,1.636,7.112.57.9,1.313,1.706,1.9,2.6a3.746,3.746,0,0,1,.792,2.758c-.333,1.149-1.858,1.152-3.169.693a5.2,5.2,0,0,1-2.749-2.014A5.806,5.806,0,0,1,674.261,413.621Z" transform="translate(-447.508 -223.465)"/>
    <path id="Path_24" data-name="Path 24" class="cls-5" d="M652.712,469.157c-.309-.888.137-1.906.231-2.888a6.339,6.339,0,0,0-.965-3.594,11.684,11.684,0,0,1-1.5-3.3,2.757,2.757,0,0,1,.072-1.614c.209-.47.716-.684,1.006-.312l-.622.4a5.661,5.661,0,0,1,2.523.122,3.123,3.123,0,0,1,1.912,2.156,13.341,13.341,0,0,0,.5,2.236c.371.762,1.089,1.016,1.54,1.685a4.028,4.028,0,0,1-.064,3.827,4.467,4.467,0,0,1-2.527,1.987C654.06,470.141,653.059,470.155,652.712,469.157Z" transform="translate(-408.588 -238.157)"/>
    <path id="Path_25" data-name="Path 25" class="cls-5" d="M682.552,478.731a8.679,8.679,0,0,1-1.093,2.007c-.845.851-1.993.328-3.018.121a5.218,5.218,0,0,0-4.964,1.991,12.635,12.635,0,0,1,7.267-9.067,21.346,21.346,0,0,1,7.474-1.169l.434.111C687.545,475.945,684.073,475.874,682.552,478.731Z" transform="translate(-455.009 -242.405)"/>
    <path id="Path_26" data-name="Path 26" class="cls-6" d="M578.691,490.089l-.006.014-.126-.243Z" transform="translate(-280.237 -247.179)"/>
    <path id="Path_27" data-name="Path 27" class="cls-5" d="M574.789,495.364a23.787,23.787,0,0,1,1.5,3.3,28.724,28.724,0,0,1,1.088,5.645c.136,1.088.178,2.478-.5,3.008a.967.967,0,0,1-1.265-.172,5,5,0,0,1-.917-1.363,31.4,31.4,0,0,1-3.1-7.347,12.785,12.785,0,0,1,.507-8.239Z" transform="translate(-273.78 -247.272)"/>
    <path id="Path_28" data-name="Path 28" class="cls-6" d="M545.958,302.213a3.048,3.048,0,0,1-3.285.641,10.846,10.846,0,0,1-3.091-2.042,7.271,7.271,0,0,1-1.874-2.044,4.145,4.145,0,0,1-.383-3.158,3.208,3.208,0,0,1,2.445-1.934l4.551-1.349-1.1-.989c1.129-.606,2.378.519,3.084,1.911a10.287,10.287,0,0,1,.936,2.881C547.62,298.316,547.251,300.918,545.958,302.213Z" transform="translate(-220.262 -192.18)"/>
    <path id="Path_29" data-name="Path 29" class="cls-6" d="M579.714,291.583a2.506,2.506,0,0,1-3.415.278,3.818,3.818,0,0,1-1.51-2.721c-.107-1.193.483-2.519,1.325-2.622l-.193-1.117c1.623-.293,3.62-.352,4.49,1.619A4.628,4.628,0,0,1,579.714,291.583Z" transform="translate(-279.536 -190.541)"/>
    <path id="Path_30" data-name="Path 30" class="cls-7" d="M548.168,211.777a36.106,36.106,0,0,1,39.925,31.831c2.235,19.815-8.2,62.844-27.237,80.656-8.962-34.127-40.365-54.369-44.52-72.562C511.9,232.262,528.353,214.011,548.168,211.777Z" transform="translate(-245.036 -170.139)"/>
    <circle id="b262ea8c-1946-46c9-a449-3a1996c39394" class="cls-5" cx="11.775" cy="11.775" r="11.775" transform="translate(297.916 62.137)"/>
    <circle id="bcc29a3a-8123-4529-80aa-6f70df2823cf" class="cls-7" cx="7.713" cy="7.713" r="7.713" transform="translate(313.753 155.677)"/>
    <path id="Path_31" data-name="Path 31" class="cls-8" d="M564.539,244.291a11.775,11.775,0,1,0,12.129,20.186,11.774,11.774,0,0,1-8.613-21.589A11.775,11.775,0,0,0,564.539,244.291Z" transform="translate(-264.245 -178.815)"/>
    <path id="Path_32" data-name="Path 32" class="cls-8" d="M547.6,252.183c4.155,18.193,35.558,38.435,44.52,72.562a49.946,49.946,0,0,0,4.974-5.449c-10.07-32.078-39.519-51.57-43.533-69.148-3.593-15.733,6.5-30.684,20.983-37C557.01,217.555,543.53,234.369,547.6,252.183Z" transform="translate(-275.677 -170.583)"/>
    <path id="Path_33" data-name="Path 33" class="cls-7" d="M401.328,275.33a27.114,27.114,0,0,1,29.983,23.9c1.678,14.88-6.161,47.194-20.454,60.57-6.73-25.628-30.313-40.829-33.433-54.492C374.089,290.713,386.447,277.008,401.328,275.33Z" transform="translate(6.261 -187.747)"/>
    <circle id="b262ea8c-1946-46c9-a449-3a1996c39394-2" data-name="b262ea8c-1946-46c9-a449-3a1996c39394" class="cls-5" cx="8.843" cy="8.843" r="8.843" transform="translate(404.047 102.978)"/>
    <circle id="bcc29a3a-8123-4529-80aa-6f70df2823cf-2" data-name="bcc29a3a-8123-4529-80aa-6f70df2823cf" class="cls-7" cx="5.792" cy="5.792" r="5.792" transform="translate(416.001 173.223)"/>
    <path id="Path_34" data-name="Path 34" class="cls-8" d="M413.621,299.748a8.843,8.843,0,0,0,9.109,15.159,8.842,8.842,0,0,1-6.468-16.213A8.841,8.841,0,0,0,413.621,299.748Z" transform="translate(-7.75 -194.263)"/>
    <path id="Path_35" data-name="Path 35" class="cls-8" d="M400.9,305.674c3.12,13.663,26.7,28.864,33.433,54.492a37.5,37.5,0,0,0,3.735-4.092c-7.562-24.09-29.677-38.727-32.692-51.928-2.7-11.815,4.881-23.043,15.758-27.786C407.968,279.669,397.844,292.3,400.9,305.674Z" transform="translate(-16.582 -188.08)"/>
    <path id="Path_36" data-name="Path 36" class="cls-2" d="M594.253,549.72h9.709l4.619-37.45h-14.33Z" transform="translate(-449.243 -141.801)"/>
    <path id="Path_37" data-name="Path 37" class="cls-9" d="M762.155,734.6h6.889l1.23-6.5,3.15,6.5H791.7a4.107,4.107,0,0,0,2.334-7.488l-14.592-10.078v-6.576l-15.348.916Z" transform="translate(-622.36 -308.241)"/>
    <path id="Path_38" data-name="Path 38" class="cls-2" d="M542.253,549.72h9.709l4.619-37.45h-14.33Z" transform="translate(-361.536 -141.801)"/>
    <path id="Path_39" data-name="Path 39" class="cls-9" d="M710.155,734.6h6.889l1.23-6.5,3.149,6.5H739.7a4.107,4.107,0,0,0,2.334-7.488l-14.592-10.078v-6.576l-15.348.916Z" transform="translate(-534.719 -308.241)"/>
    <path id="Path_40" data-name="Path 40" class="cls-9" d="M791.285,542.421c-1.858,2.786-22.071,79.4-22.071,79.4l-17.923,2.044,2.127-19.277,3.252-34.113,5.035-22.77s-17.781-40.467-18.905-43.691L742,501.7l-5.555,50.417a14.159,14.159,0,0,0-.845,5.63c.167,3.149-2.991,50.528-2.991,50.528l-1.519,16.992L715.735,627.4l-6.23-29.4c-5.2-9.55-2.22-43.487-.093-46.645s1.282-25.157,1.282-25.157c-2.717-.956-18.916-56.2-10.814-55.87-.52-2.945-.929-5.574-.929-5.574l14.065-11.343,35.2-9.15L757.1,440s15.861,29.329,15.7,30.787a8.11,8.11,0,0,0,1.2,5.286l16.014,53.594S793.162,539.605,791.285,542.421Z" transform="translate(-571.888 -233.377)"/>
    <path id="Path_41" data-name="Path 41" class="cls-3" d="M755.9,311.887,761.5,300l19.059.733,6.217,12.369s17.767,21.22,18.342,28.12c.723,8.678-5.288,51.211.723,48.454,0,0,14.171,16.633,5.786,16.633s-46.315,23.81-48.8,26.488-13.6,4.414-12.668-1.176S755.9,395.8,755.9,395.8l-13.031-47.538c-3.75-10.263-4.917-21.776,3.56-28.67Z" transform="translate(-624.034 -194.624)"/>
    <path id="Path_42" data-name="Path 42" class="cls-7" d="M694.977,267.484a20.886,20.886,0,0,1,27.118,11.707c4.256,10.721,4.961,36.325-2.959,49.157-10.183-17.689-30.785-24.22-35.867-33.745C677.84,284.425,684.255,271.74,694.977,267.484Z" transform="translate(-496.011 -185.214)"/>
    <circle id="b262ea8c-1946-46c9-a449-3a1996c39394-3" data-name="b262ea8c-1946-46c9-a449-3a1996c39394" class="cls-5" cx="6.812" cy="6.812" r="6.812" transform="translate(200.49 92.475)"/>
    <circle id="bcc29a3a-8123-4529-80aa-6f70df2823cf-3" data-name="bcc29a3a-8123-4529-80aa-6f70df2823cf" class="cls-7" cx="4.461" cy="4.461" r="4.461" transform="translate(222.276 142.892)"/>
    <path id="Path_43" data-name="Path 43" class="cls-8" d="M708.851,286.61a6.812,6.812,0,1,0,9.835,9.426,6.811,6.811,0,0,1-8.085-10.743,6.811,6.811,0,0,0-1.75,1.317Z" transform="translate(-508.144 -190.553)"/>
    <path id="Path_44" data-name="Path 44" class="cls-8" d="M689.015,295.682c5.081,9.525,25.683,16.056,35.867,33.745a28.892,28.892,0,0,0,1.949-3.8c-10.491-16.377-29.888-22.787-34.8-31.989-4.394-8.236-1.03-18.115,6.1-23.839C689.012,274.924,684.039,286.355,689.015,295.682Z" transform="translate(-501.698 -186.265)"/>
    <path id="Path_45" data-name="Path 45" class="cls-2" d="M696.2,355.863a7.244,7.244,0,0,0-8.7,6.9L672.045,368.7l1.314,10.27,21.706-8.683a7.283,7.283,0,0,0,1.137-14.419Z" transform="translate(-466.97 -210.046)"/>
    <path id="Path_46" data-name="Path 46" class="cls-3" d="M700.07,325.844h0A14.483,14.483,0,0,1,720,330.7l22.181,36.629,50.151-11.888,4.569,12.543-64.223,30.422L700.155,346.6C695.285,339.758,692.9,330.221,700.07,325.844Z" transform="translate(-575.186 -201.191)"/>
    <path id="Path_47" data-name="Path 47" class="cls-9" d="M770.951,256.328a21.568,21.568,0,1,0,37.1-14.959l-.1-.1c-.173-.181-.345-.362-.526-.535l-.006,0a.009.009,0,0,1,0-.006c-.224-.207-.449-.414-.682-.612a21.562,21.562,0,0,0-35.776,16.219Z" transform="translate(-646.292 -176.565)"/>
    <circle id="Ellipse_12" data-name="Ellipse 12" class="cls-10" cx="18.085" cy="18.085" r="18.085" transform="translate(133.08 66.668)"/>
    <path id="Path_48" data-name="Path 48" class="cls-9" d="M762.858,267.878l3-.529a8.356,8.356,0,0,0,6.729-6.738l2.924,4.9.128.042c6.966,2.313,14.215,1.621,22.154-2.112a61.792,61.792,0,0,0,6.594-3.636l.157-.1.013-.184c.4-5.883-.915-10.8-3.718-13.84a11.15,11.15,0,0,0-8.413-3.507.692.692,0,0,1-.3-.165c-.04-.03-.081-.059-.121-.087v-.03l-.208-.1c-.446-.21-.9-.411-1.356-.594a20.393,20.393,0,0,0-21.3,4.128c-5.571,5.318-8.126,14.243-6.358,22.21Z" transform="translate(-630.888 -177.968)"/>
    <path id="Path_49" data-name="Path 49" class="cls-9" d="M829.956,276.232c6.154-3.177-1.761-14.706-.17-21.446s13.044-8.909,13.774-15.8,2.446-13.991,6.991-19.217c2.9-3.34,7.183-5.8,11.589-5.387a10.42,10.42,0,0,1,9.133,12.867,3.2,3.2,0,0,1,5.3.63,3.249,3.249,0,0,1-2.721,4.133c-2.43,3-5.213,6.186-9.021,6.792a4.108,4.108,0,0,1-3.5-.808,2.131,2.131,0,0,1,.1-3.223c-4.785,1.9-7.59,7.074-8.3,12.173s.272,10.259.92,15.366.926,10.48-1.077,15.223c-2.366,5.6-7.814,9.62-13.759,10.908a26.385,26.385,0,0,1-17.658-2.807,41.747,41.747,0,0,1-13.535-12.021C814.338,278.1,823.074,279.784,829.956,276.232Z" transform="translate(-728.772 -170.913)"/>
    <path id="Path_50" data-name="Path 50" class="cls-11" d="M779.112,267.975a36.788,36.788,0,0,1,28.323-24.613c.026-.009.112-.043.224-.095.069-.043.155-.086.242-.129-.259-.147-.509-.276-.768-.406l-.006,0a.009.009,0,0,1,0-.006c-.224-.207-.449-.414-.682-.612l-.656.026S782.743,238.488,779.112,267.975Z" transform="translate(-646.268 -178.568)"/>
    <path id="Path_51" data-name="Path 51" class="cls-12" d="M567.364,212.357l12.97,15.027,21.432-6.329L578.4,231.822Z" transform="translate(-423.226 -58.782)"/>
    <path id="Path_52" data-name="Path 52" class="cls-13" d="M633.905,744.743l199.42.222a.861.861,0,0,0,0-1.722l-199.42-.222a.861.861,0,1,0,0,1.722Z" transform="translate(-559.664 -317.256)"/>
    <path id="Path_53" data-name="Path 53" class="cls-7" d="M265.6,490.527q13.3,0,29.16-1.059c54.681-3.656,125.51-16.368,199.439-35.792s142.125-43.242,192.028-67.064c24.309-11.6,42.965-22.59,55.452-32.65,13.219-10.65,19-19.934,17.187-27.592-3.536-14.919-34.844-18.183-60.485-18.293l-.009,2.17c35.212.152,55.986,6.065,58.494,16.649,3.2,13.48-22.862,34.526-71.49,57.741-49.792,23.77-117.864,47.542-191.676,66.936S349.195,483.655,294.634,487.3c-53.283,3.564-85.677-2.124-88.872-15.605-2.652-11.193,14.834-27.68,49.239-46.428l-.947-1.927c-25,13.622-54.016,33.16-50.291,48.88,1.815,7.658,11.062,12.992,27.484,15.854C240.607,489.71,252.1,490.527,265.6,490.527Z" transform="translate(-203.407 -196.86)"/>
  </g>
</svg>
