<svg xmlns="http://www.w3.org/2000/svg" width="45" height="45" viewBox="0 0 45 45">
  <defs>
    <style>
      .cls-1 {
        fill: #707070;
      }
    </style>
  </defs>
  <g id="Group_2" data-name="Group 2" transform="translate(-41.5 -18.5)">
    <path id="Ellipse_12" data-name="Ellipse 12" class="cls-1" d="M11-.5a11.5,11.5,0,0,1,8.132,19.632A11.5,11.5,0,0,1,2.868,2.868,11.425,11.425,0,0,1,11-.5Zm0,22A10.5,10.5,0,1,0,.5,11,10.512,10.512,0,0,0,11,21.5Z" transform="translate(42 30)"/>
    <path id="Ellipse_15" data-name="Ellipse 15" class="cls-1" d="M11-.5a11.5,11.5,0,0,1,8.132,19.632A11.5,11.5,0,0,1,2.868,2.868,11.425,11.425,0,0,1,11-.5Zm0,22A10.5,10.5,0,1,0,.5,11,10.512,10.512,0,0,0,11,21.5Z" transform="translate(75 19) rotate(90)"/>
    <path id="Ellipse_13" data-name="Ellipse 13" class="cls-1" d="M11-.5a11.5,11.5,0,0,1,8.132,19.632A11.5,11.5,0,0,1,2.868,2.868,11.425,11.425,0,0,1,11-.5Zm0,22A10.5,10.5,0,1,0,.5,11,10.512,10.512,0,0,0,11,21.5Z" transform="translate(64 30)"/>
    <path id="Ellipse_14" data-name="Ellipse 14" class="cls-1" d="M11-.5a11.5,11.5,0,0,1,8.132,19.632A11.5,11.5,0,0,1,2.868,2.868,11.425,11.425,0,0,1,11-.5Zm0,22A10.5,10.5,0,1,0,.5,11,10.512,10.512,0,0,0,11,21.5Z" transform="translate(75 41) rotate(90)"/>
  </g>
</svg>
